<svg xmlns="http://www.w3.org/2000/svg" width="1344" height="768" viewBox="0 0 1344 768">
  <rect width="1344" height="768" fill="#e8eef2"/>
  <rect x="0" y="520" width="1344" height="248" fill="#c9a27e"/>
  <rect x="120" y="80" width="360" height="300" rx="10" fill="#ffffff"/>
  <rect x="150" y="110" width="300" height="200" fill="#9fb8c8"/>
  <path d="M150 310 L260 200 L330 260 L390 210 L450 270 V310Z" fill="#5b7f95"/>
  <rect x="560" y="260" width="520" height="300" rx="14" fill="#1f2937"/>
  <rect x="580" y="280" width="480" height="240" rx="6" fill="#dbeafe"/>
  <rect x="610" y="310" width="200" height="22" rx="6" fill="#1d4ed8"/>
  <rect x="610" y="350" width="360" height="14" rx="6" fill="#93c5fd"/>
  <rect x="610" y="378" width="300" height="14" rx="6" fill="#93c5fd"/>
  <rect x="780" y="560" width="80" height="20" fill="#111827"/>
  <path d="M1160 520 h90 l-12 -110 h-66z" fill="#e7e5e4"/>
  <path d="M1205 410 c-60 -40 -40 -140 0 -170 c40 30 60 130 0 170z" fill="#4d7c0f"/>
  <rect x="300" y="470" width="150" height="50" rx="6" fill="#f97316"/>
</svg>
